<svg xmlns="http://www.w3.org/2000/svg" width="160.474" height="27.127" viewBox="0 0 160.474 27.127"><defs><style>.a{fill:#4c7aec}.b{fill:#41d7e4;fill-rule:evenodd}</style></defs><path class="a" d="M44.776 21.198q-.733-.525-.4-1.124l.764-1.4q.4-.75 1.26-.18a6.071 6.071 0 0 0 2.018.84 9.438 9.438 0 0 0 2.122.27 5.6 5.6 0 0 0 1.26-.135 2.066 2.066 0 0 0 .99-.525 1.508 1.508 0 0 0 .4-1.139 1.211 1.211 0 0 0-.24-.759 1.546 1.546 0 0 0-.615-.476 4.959 4.959 0 0 0-.795-.268q-.556-.133-1.6-.441a17.9 17.9 0 0 1-2-.722 6.577 6.577 0 0 1-1.552-.977 3.97 3.97 0 0 1-1.109-1.4 4.558 4.558 0 0 1-.352-1.9 4.223 4.223 0 0 1 .877-2.654 4.482 4.482 0 0 1 2.271-1.575 11.877 11.877 0 0 1 3.479-.435 9.408 9.408 0 0 1 2.745.405 8.438 8.438 0 0 1 1.9.764q.9.571.45 1.214l-.914 1.335q-.421.6-1.35.09a9.148 9.148 0 0 0-1.388-.629 4.552 4.552 0 0 0-1.522-.241 4.876 4.876 0 0 0-1.094.12 1.959 1.959 0 0 0-.892.45 1.108 1.108 0 0 0-.368.869 1.172 1.172 0 0 0 .337.892 2.065 2.065 0 0 0 .779.473l.848.285q.839.27 1.694.517t1.739.592a6.1 6.1 0 0 1 1.485.855 3.2 3.2 0 0 1 1.049 1.409 5.407 5.407 0 0 1 .33 1.949 4.627 4.627 0 0 1-.869 2.7 4.736 4.736 0 0 1-2.294 1.769 9.565 9.565 0 0 1-3.314.525 18.43 18.43 0 0 1-3.6-.3 6.524 6.524 0 0 1-2.529-1.043zM58.315 7.674q-.33-1.171.494-1.17h2.535a.863.863 0 0 1 .9.764l2.024 8.788q.18.764.315 1.469a10.093 10.093 0 0 1 .165 1.155h.09a10.575 10.575 0 0 1 .165-1.177q.135-.727.314-1.446l2.116-8.788a.862.862 0 0 1 .9-.764h2.729a.862.862 0 0 1 .9.764l2.115 8.788q.181.719.315 1.446a10.8 10.8 0 0 1 .165 1.177h.09a9.826 9.826 0 0 1 .163-1.152q.135-.7.314-1.469l2.025-8.788a.863.863 0 0 1 .9-.764h2.533q.825 0 .5 1.17l-3.9 13.571q-.285 1-1.094 1H73.37q-.855 0-1.093-1l-2.161-8.893q-.2-.764-.277-1.229a8.352 8.352 0 0 1-.113-1.034h-.06a8.8 8.8 0 0 1-.113 1.034q-.083.465-.277 1.229l-2.161 8.893q-.239 1-1.094 1h-2.714q-.81 0-1.095-1zM81.839 18.049a4.521 4.521 0 0 1 2.864-4.348 16.126 16.126 0 0 1 6.538-1.44v-.6a2.4 2.4 0 0 0-.689-1.949 2.929 2.929 0 0 0-1.92-.57 4.415 4.415 0 0 0-1.537.247 5.73 5.73 0 0 0-1.155.57 9.552 9.552 0 0 0-.877.653q-.69.6-1.139.06l-1.245-1.53q-.465-.569.224-1.17a5.594 5.594 0 0 1 1.223-.81 10.207 10.207 0 0 1 1.852-.652 11.981 11.981 0 0 1 3-.308 7.139 7.139 0 0 1 4.792 1.44 5.293 5.293 0 0 1 1.672 4.243v9.462a.8.8 0 0 1-.906.9h-2.477q-.815 0-.815-.9v-.45a5.362 5.362 0 0 1-2.122 1.252 7.464 7.464 0 0 1-2.272.4 5.231 5.231 0 0 1-3.734-1.208 4.315 4.315 0 0 1-1.277-3.292zm4.439-.09a1.857 1.857 0 0 0 .209.907 1.254 1.254 0 0 0 .66.563 2.673 2.673 0 0 0 1.005.18 5.243 5.243 0 0 0 1.484-.21 4.44 4.44 0 0 0 1.6-.99v-3.253a11 11 0 0 0-3.374.735 3.674 3.674 0 0 0-1.223.929 1.82 1.82 0 0 0-.361 1.139zM98.435 21.198q-.733-.525-.4-1.124l.764-1.4q.4-.75 1.26-.18a6.073 6.073 0 0 0 2.018.84 9.435 9.435 0 0 0 2.121.27 5.6 5.6 0 0 0 1.26-.135 2.068 2.068 0 0 0 .99-.525 1.509 1.509 0 0 0 .4-1.139 1.211 1.211 0 0 0-.239-.759 1.546 1.546 0 0 0-.615-.476 4.963 4.963 0 0 0-.795-.268q-.556-.133-1.6-.441a17.909 17.909 0 0 1-2-.722 6.578 6.578 0 0 1-1.552-.977 3.972 3.972 0 0 1-1.109-1.4 4.559 4.559 0 0 1-.352-1.9 4.228 4.228 0 0 1 .877-2.654 4.481 4.481 0 0 1 2.272-1.575 11.866 11.866 0 0 1 3.479-.435 9.406 9.406 0 0 1 2.744.405 8.435 8.435 0 0 1 1.9.764q.9.571.45 1.214l-.914 1.335q-.421.6-1.35.09a9.146 9.146 0 0 0-1.388-.629 4.551 4.551 0 0 0-1.522-.241 4.877 4.877 0 0 0-1.094.12 1.964 1.964 0 0 0-.892.45 1.108 1.108 0 0 0-.367.869 1.172 1.172 0 0 0 .337.892 2.066 2.066 0 0 0 .779.473l.848.285q.839.27 1.694.517t1.739.592a6.081 6.081 0 0 1 1.485.855 3.2 3.2 0 0 1 1.049 1.409 5.4 5.4 0 0 1 .33 1.949 4.627 4.627 0 0 1-.869 2.7 4.736 4.736 0 0 1-2.294 1.769 9.567 9.567 0 0 1-3.314.525 18.437 18.437 0 0 1-3.6-.3 6.524 6.524 0 0 1-2.53-1.043zM115.018 2.724a.931.931 0 0 1 .78-.569h1.049a.794.794 0 0 1 .9.9v3.45h2.429q.885 0 .885.749v1.5q0 .75-.885.749h-2.429v7.438a7.813 7.813 0 0 0 .218 2.2c.144.446.522.668 1.132.668a4.071 4.071 0 0 0 1.049-.158 6.128 6.128 0 0 0 .915-.307c.35-.159.58-.046.689.345l.45 1.71a.591.591 0 0 1-.389.749 6.99 6.99 0 0 1-1.357.413 8.159 8.159 0 0 1-1.732.188 7.136 7.136 0 0 1-3.659-.885q-1.514-.885-1.515-3.645V9.507h-1.019c-.591 0-.885-.249-.885-.749v-1.5c0-.5.294-.749.885-.749h1.019M125.151 4.195a.8.8 0 0 1-.9-.9v-1.92a.8.8 0 0 1 .9-.9h2.4a.8.8 0 0 1 .9.9v1.92a.8.8 0 0 1-.9.9zm0 18.053a.8.8 0 0 1-.9-.9V7.403a.8.8 0 0 1 .9-.9h2.4a.794.794 0 0 1 .9.9v13.945a.794.794 0 0 1-.9.9zM132.66 22.248a.794.794 0 0 1-.9-.9V1.015a.8.8 0 0 1 .9-.9h2.4a.8.8 0 0 1 .9.9v11.023a12.005 12.005 0 0 1-.06 1.2h.06l4.755-6.12a1.437 1.437 0 0 1 1.17-.615h2.459q1.379 0 .476 1.094l-4.47 5.393 5.2 8.136q.714 1.122-.472 1.121h-2.564a1.347 1.347 0 0 1-1.2-.749l-3.167-5.263-2.188 2.055v3.058a.794.794 0 0 1-.9.9zM146.873 18.049a4.521 4.521 0 0 1 2.864-4.348 16.118 16.118 0 0 1 6.538-1.44v-.6a2.4 2.4 0 0 0-.689-1.949 2.931 2.931 0 0 0-1.92-.57 4.411 4.411 0 0 0-1.537.247 5.726 5.726 0 0 0-1.155.57 9.554 9.554 0 0 0-.877.653q-.689.6-1.139.06l-1.245-1.53q-.465-.569.224-1.17a5.6 5.6 0 0 1 1.223-.81 10.18 10.18 0 0 1 1.852-.652 11.981 11.981 0 0 1 3-.308 7.139 7.139 0 0 1 4.792 1.44 5.293 5.293 0 0 1 1.672 4.243v9.462a.8.8 0 0 1-.906.9h-2.477q-.815 0-.815-.9v-.45a5.362 5.362 0 0 1-2.122 1.252 7.464 7.464 0 0 1-2.272.4 5.231 5.231 0 0 1-3.734-1.208 4.315 4.315 0 0 1-1.277-3.292zm4.44-.09a1.859 1.859 0 0 0 .209.907 1.254 1.254 0 0 0 .66.563 2.673 2.673 0 0 0 1.005.18 5.243 5.243 0 0 0 1.484-.21 4.449 4.449 0 0 0 1.6-.99v-3.253a10.994 10.994 0 0 0-3.374.735 3.675 3.675 0 0 0-1.223.929 1.82 1.82 0 0 0-.362 1.139z"/><g><rect class="a" width="10.749" height="10.749" rx="1.846" transform="translate(8.189 8.19)"/><path class="b" d="M2.942 27.128h15.611a2.943 2.943 0 0 0 2.943-2.943 2.942 2.942 0 0 0-2.943-2.942H8.829A2.944 2.944 0 0 1 5.886 18.3V8.83a2.942 2.942 0 0 0-2.943-2.942A2.942 2.942 0 0 0 .001 8.83v15.35a2.942 2.942 0 0 0 2.941 2.948zM24.44 0H8.83a2.944 2.944 0 0 0-2.943 2.943A2.944 2.944 0 0 0 8.83 5.886h9.724a2.942 2.942 0 0 1 2.943 2.942v9.47a2.943 2.943 0 0 0 2.943 2.943 2.944 2.944 0 0 0 2.943-2.943V2.943A2.944 2.944 0 0 0 24.44 0z"/></g></svg>